<svg width="342.840546" height="80.137665" viewBox="0 0 342.841 80.1377" fill="none" xmlns="http://www.w3.org/2000/svg" xmlns:xlink="http://www.w3.org/1999/xlink">
	<desc>
			Created with Pixso.
	</desc>
	<defs/>
	<path id="Vector" d="M329.16 17.65L329.08 17.43L328.94 17.43L328.86 17.65L329.01 17.8L329.16 17.65ZM329.97 18.03L333.96 21.98C334.41 22.43 334.85 22.88 335.29 23.25C335.52 23.4 335.74 23.55 336.03 23.7C336.33 23.78 336.63 23.85 336.92 23.85C337.22 23.85 337.51 23.78 337.81 23.63L338.11 24.08L335.89 29.75L335.37 30.2L328.94 18.62L326.35 23.78C326.13 24.3 325.83 24.82 325.68 25.35C325.54 25.65 325.46 25.95 325.46 26.24C325.46 26.54 325.46 26.84 325.54 27.14C325.68 27.44 325.83 27.66 326.05 27.89L325.76 28.34L319.69 27.96L319.1 27.59L327.97 17.8L322.43 16.98C321.84 16.91 321.25 16.76 320.66 16.76C320.36 16.76 320.06 16.76 319.77 16.83C319.47 16.91 319.25 17.05 318.95 17.2C318.73 17.43 318.51 17.65 318.36 17.95L317.85 17.8L316.37 11.83L316.59 11.15L328.49 16.68L327.53 11.08C327.46 10.48 327.38 9.88 327.24 9.29C327.09 8.99 327.01 8.76 326.87 8.46C326.71 8.23 326.51 8.03 326.27 7.87C325.98 7.64 325.68 7.57 325.39 7.49L325.39 6.97L330.49 3.61L331.23 3.61L329.68 16.76L334.7 14.14C335.22 13.92 335.74 13.62 336.26 13.32C336.48 13.1 336.7 12.95 336.92 12.72C337.07 12.5 337.22 12.2 337.37 11.9C337.44 11.6 337.44 11.3 337.37 11L337.88 10.85L342.61 14.74L342.84 15.41L329.97 18.03ZM8.09 23.38C5.79 22.4 3.85 20.45 2.88 18.06C1.91 15.66 1.82 12.92 2.7 10.52C3.41 8.57 4.64 6.8 6.23 5.47C7.82 4.14 9.76 3.16 11.79 2.63C14 2.1 16.29 2.01 18.58 2.28C20.88 2.63 23.08 3.25 25.29 3.96C28.55 5.03 31.73 6.27 35.08 6.98C37.64 7.6 40.2 8.39 42.85 8.48C43.73 8.48 44.7 8.39 45.5 8.04C45.85 7.77 46.2 7.51 46.47 7.15C46.73 6.71 46.91 6.36 47 5.82C47 5.38 46.91 4.85 46.73 4.49C46.47 4.05 46.11 3.61 45.76 3.34C44.97 2.72 44.08 2.45 43.11 2.19C42.14 2.01 41.17 1.83 40.29 1.75L40.29 0.06C41.35 -0.03 42.5 -0.03 43.55 0.06C45.58 0.33 47.7 0.86 49.47 1.83C51.32 2.81 52.91 4.32 53.88 6.18C54.94 8.13 55.2 10.52 54.67 12.74C54.05 14.95 52.64 16.82 50.7 18.15C49.11 19.21 47.17 19.92 45.14 20.1C44.44 20.19 43.64 20.27 42.94 20.27L42.94 30.91L48.76 36.85L42.94 42.79L42.94 56.27C43.55 55.82 44.08 55.38 44.7 54.94C47.97 52.19 50.52 48.64 52.11 44.65L53.79 44.65C53.97 48.73 52.99 52.81 51.14 56.44C49.02 60.43 45.85 63.8 41.97 66.11C38.08 68.41 33.67 69.65 29.17 69.83C20.97 70.09 12.67 66.64 7.11 60.52C1.56 54.4 -1.09 45.72 0.41 37.65C1.38 32.6 3.85 27.9 7.47 24.26C11.09 20.72 15.76 18.32 20.79 17.44L21.67 18.77C17.79 21.34 14.7 24.97 12.76 29.23L32.17 20.89L32.17 47.84L16.64 54.4C17.87 55.64 19.26 56.68 20.79 57.51C24.5 59.63 28.91 60.43 33.14 59.9C35.7 59.63 38.17 58.84 40.47 57.68L40.47 42.7L34.64 36.85L40.47 31L40.47 20.1C40.02 20.1 39.58 20.01 39.23 19.92C35.26 19.39 31.38 18.23 27.5 17.35C23.61 16.37 19.64 15.22 15.67 14.42C14.08 14.07 12.41 13.89 10.82 14.25C9.94 14.42 9.23 14.78 8.53 15.31C7.91 15.75 7.38 16.46 7.03 17.26C6.76 18.15 6.67 19.12 7.03 20.1C7.38 20.98 8.09 21.69 8.97 22.14L8.09 23.38ZM11.61 32.24C10.2 36.76 10.11 41.82 11.61 46.34C12.41 48.55 13.56 50.68 14.97 52.54L20.79 50.06L20.79 28.34L11.61 32.24ZM76.21 59.55L79.03 62.38L81.77 60.52L83.36 62.47L72.42 70.18L63.33 62.38L59.98 64.51L58.48 62.47L64.39 58.66L64.39 18.32C64.39 17.88 64.39 17.44 64.21 16.99C64.12 16.55 63.95 16.11 63.77 15.75C63.33 15.22 62.8 14.78 62.18 14.51C61.48 14.16 60.86 13.89 60.15 13.63L60.15 12.38L74.53 2.19L76.21 2.19L76.21 35.08L87.15 24.71L96.5 32.51L100.03 29.67L101.53 31.62L97.74 34.72L97.74 57.86C97.74 60.25 97.74 62.65 97.3 65.04C96.95 67.43 96.06 69.74 94.83 71.78C92.98 74.71 90.31 77.02 87.15 78.43C83.87 79.94 80.22 80.46 76.65 79.93L76.65 77.81C78.5 77.36 80.36 76.39 81.77 75.06C83.36 73.46 84.42 71.51 85.12 69.39C86.27 65.93 86.36 62.29 86.36 58.66L86.36 37.47L81.06 33.04L76.21 37.65L76.21 59.55ZM102.97 64.42L101.47 62.47L105.62 59.1L105.62 35.7L126.71 24.71L135.62 38.27L135.62 38.71L116.56 50.59L116.56 54.4L127.15 61.67L136.94 54.05L138.18 56.18L120 70.98L106.85 61.23L102.97 64.42ZM116.56 48.46L125.91 42.52L118.32 31.44L116.56 32.42L116.56 48.46ZM147.54 67.88C147.07 67.88 146.83 67.67 146.83 67.26L146.74 6.89C146.74 6.41 146.98 6.18 147.45 6.18L155.39 6.18L170.3 41.11L169.86 6.89C169.86 6.41 170.12 6.18 170.65 6.18L179.39 6.18C179.74 6.18 179.92 6.41 179.92 6.89L180.01 67.35C180.01 67.7 179.86 67.88 179.56 67.88L171.8 67.88L156.53 35.25L157.15 67.17C157.15 67.64 156.89 67.88 156.36 67.88L147.54 67.88ZM188.02 67.88C187.79 67.88 187.67 67.73 187.67 67.43L187.76 6.53C187.76 6.3 187.88 6.18 188.11 6.18L216.43 6.18C216.67 6.18 216.79 6.33 216.79 6.62L216.79 16.55C216.79 16.79 216.67 16.91 216.43 16.91L198.35 16.91L198.35 30.73L216.43 30.73C216.67 30.73 216.79 30.85 216.79 31.09L216.87 41.11C216.87 41.34 216.76 41.46 216.52 41.46L198.35 41.46L198.35 56.97L216.52 56.97C216.76 56.97 216.87 57.12 216.87 57.42L216.87 67.52C216.87 67.76 216.76 67.88 216.52 67.88L188.02 67.88ZM232.84 67.88C232.6 67.88 232.46 67.73 232.4 67.43L221.99 6.53C221.93 6.3 222.01 6.18 222.25 6.18L232.13 6.18C232.37 6.18 232.51 6.3 232.57 6.53L238.22 46.6L244.04 6.53C244.1 6.3 244.28 6.18 244.57 6.18L252.51 6.18C252.75 6.18 252.9 6.3 252.95 6.53L258.69 46.6L264.43 6.53C264.48 6.3 264.63 6.18 264.87 6.18L274.66 6.18C274.95 6.18 275.07 6.3 275.01 6.53L264.51 67.43C264.44 67.57 264.35 67.69 264.25 67.79L264.07 67.88L253.4 67.88C253.22 67.88 253.07 67.73 252.95 67.43L248.46 35.61L243.96 67.43C243.9 67.73 243.75 67.88 243.51 67.88L232.84 67.88ZM294.09 68.76C290.91 68.76 288 67.97 285.35 66.37C282.79 64.74 280.64 62.52 279.09 59.9C277.56 57.18 276.79 54.2 276.79 50.95L276.79 46.87C276.79 46.57 276.94 46.43 277.24 46.43L287.12 46.43C287.35 46.43 287.47 46.57 287.47 46.87L287.47 50.95C287.47 52.9 288.12 54.58 289.41 56C290.71 57.36 292.26 58.04 294.09 58.04C295.91 58.04 297.47 57.33 298.76 55.91C300.06 54.49 300.71 52.84 300.71 50.95C300.71 48.76 299.29 46.87 296.47 45.27C295.53 44.74 294.06 43.91 292.06 42.79C290.17 41.73 288.29 40.67 286.41 39.6C283.18 37.71 280.76 35.34 279.18 32.51C277.65 29.61 276.88 26.36 276.88 22.76C276.88 19.45 277.68 16.49 279.26 13.89C280.85 11.23 282.94 9.13 285.53 7.6C288.13 6.07 291.08 5.28 294.09 5.29C297.21 5.29 300.06 6.09 302.65 7.69C305.26 9.18 307.42 11.36 308.91 13.98C310.5 16.58 311.29 19.51 311.29 22.76L311.29 30.03C311.29 30.26 311.18 30.38 310.94 30.38L301.06 30.38C300.82 30.38 300.71 30.26 300.71 30.03L300.62 22.76C300.62 20.69 299.97 19 298.68 17.7C297.38 16.4 295.85 15.75 294.09 15.75C292.26 15.75 290.71 16.46 289.41 17.88C288.12 19.24 287.47 20.86 287.47 22.76C287.47 24.71 287.88 26.33 288.71 27.63C289.53 28.93 291.03 30.17 293.21 31.35C293.5 31.53 294.06 31.86 294.88 32.33C295.76 32.74 296.71 33.25 297.71 33.84C298.71 34.37 299.59 34.84 300.35 35.25C301.18 35.67 301.68 35.93 301.85 36.05C304.79 37.71 307.12 39.75 308.82 42.17C310.53 44.53 311.38 47.46 311.38 50.95C311.38 54.31 310.59 57.36 309 60.08C307.47 62.74 305.38 64.86 302.74 66.46C300.15 68 297.26 68.76 294.09 68.76Z" fill="#202124" fill-opacity="1.000000" fill-rule="nonzero"/>
</svg>
